{
    "asset" : {
        "generator" : "Khronos glTF Blender I/O v1.5.17",
        "version" : "2.0"
    },
    "scene" : 0,
    "scenes" : [
        {
            "name" : "Scene",
            "nodes" : [
                12,
                13
            ]
        }
    ],
    "nodes" : [
        {
            "name" : "Bone.011",
            "rotation" : [
                -0.5063138008117676,
                4.3902468327416955e-09,
                0.15372037887573242,
                0.848537802696228
            ],
            "scale" : [
                0.9999998807907104,
                0.9999998211860657,
                0.9999998807907104
            ],
            "translation" : [
                -4.298527187529544e-07,
                1.176053762435913,
                2.880281897432724e-07
            ]
        },
        {
            "children" : [
                0
            ],
            "name" : "Bone.009",
            "rotation" : [
                -0.41594722867012024,
                -0.0013042028294876218,
                0.010131997056305408,
                0.9093315005302429
            ],
            "scale" : [
                1.0000003576278687,
                0.9999999403953552,
                1.0000003576278687
            ],
            "translation" : [
                2.1306060915549097e-08,
                1.1724824905395508,
                4.76837158203125e-07
            ]
        },
        {
            "children" : [
                1
            ],
            "name" : "Bone.001",
            "rotation" : [
                -0.24961161613464355,
                -0.0005412850296124816,
                -0.014445405453443527,
                0.968238115310669
            ],
            "scale" : [
                1,
                1,
                1.000000238418579
            ],
            "translation" : [
                2.3181263131277774e-08,
                1.464842677116394,
                -2.384185791015625e-07
            ]
        },
        {
            "children" : [
                2
            ],
            "name" : "Bone.002",
            "rotation" : [
                -0.11591000854969025,
                0.0007435866282321513,
                0.019633883610367775,
                0.9930654168128967
            ],
            "scale" : [
                0.9999999403953552,
                0.9999998211860657,
                1
            ],
            "translation" : [
                1.5566635980235333e-08,
                1.5229268074035645,
                5.960465188081798e-08
            ]
        },
        {
            "children" : [
                3
            ],
            "name" : "Bone.003",
            "rotation" : [
                -0.04128657653927803,
                -0.0028140044305473566,
                0.009566497057676315,
                0.9990975856781006
            ],
            "scale" : [
                0.9999999403953552,
                0.9999998211860657,
                1
            ],
            "translation" : [
                2.8888109682156937e-09,
                1.3733105659484863,
                -5.8673322200775146e-08
            ]
        },
        {
            "children" : [
                4
            ],
            "name" : "Bone.004",
            "rotation" : [
                -0.00981190800666809,
                -0.0019503380171954632,
                -0.02622363530099392,
                0.9996060729026794
            ],
            "scale" : [
                1,
                0.9999999403953552,
                1.0000001192092896
            ],
            "translation" : [
                7.450566386069113e-09,
                1.3479199409484863,
                -7.450580596923828e-08
            ]
        },
        {
            "children" : [
                5
            ],
            "name" : "Bone.005",
            "rotation" : [
                0.001821834477595985,
                -0.0007378155132755637,
                -0.008424523286521435,
                0.999962568283081
            ],
            "scale" : [
                1.0000003576278687,
                1,
                1.0000001192092896
            ],
            "translation" : [
                1.1172702762962672e-08,
                1.2018911838531494,
                -1.4901155864777138e-08
            ]
        },
        {
            "children" : [
                6
            ],
            "name" : "Bone.006",
            "rotation" : [
                0.004940561950206757,
                -0.0005195981357246637,
                0.024431953206658363,
                0.9996891617774963
            ],
            "scale" : [
                1,
                1.0000001192092896,
                1
            ],
            "translation" : [
                1.3994781333792616e-08,
                1.1998190879821777,
                5.2154067731180476e-08
            ]
        },
        {
            "children" : [
                7
            ],
            "name" : "Bone.007",
            "rotation" : [
                0.007656728848814964,
                -0.00032412647851742804,
                -0.003629010869190097,
                0.9999640583992004
            ],
            "translation" : [
                -5.122274160385132e-09,
                0.9919043779373169,
                -1.862645149230957e-08
            ]
        },
        {
            "children" : [
                8
            ],
            "name" : "Bone.008",
            "rotation" : [
                0.015055475756525993,
                -2.971512913063634e-06,
                -0.0034021828323602676,
                0.9998809099197388
            ],
            "scale" : [
                1,
                0.9999998211860657,
                0.9999998211860657
            ],
            "translation" : [
                -1.1102251422075247e-16,
                1.0297067165374756,
                -8.881784197001252e-16
            ]
        },
        {
            "children" : [
                9
            ],
            "name" : "Bone",
            "rotation" : [
                0.03375910222530365,
                0.0006096671568229795,
                -0.004012156743556261,
                0.9994217753410339
            ],
            "scale" : [
                0.9999999403953552,
                1,
                0.9999999403953552
            ]
        },
        {
            "mesh" : 0,
            "name" : "Tentacle",
            "skin" : 0
        },
        {
            "children" : [
                11,
                10
            ],
            "name" : "Armature"
        },
        {
            "name" : "IK Target",
            "translation" : [
                0.10256561636924744,
                10.942232131958008,
                -1.4434043169021606
            ]
        }
    ],
    "materials" : [
        {
            "doubleSided" : true,
            "name" : "Material",
            "pbrMetallicRoughness" : {
                "baseColorTexture" : {
                    "index" : 0
                },
                "metallicFactor" : 0,
                "roughnessFactor" : 0.4000000059604645
            }
        }
    ],
    "meshes" : [
        {
            "name" : "Cube",
            "primitives" : [
                {
                    "attributes" : {
                        "POSITION" : 0,
                        "NORMAL" : 1,
                        "TEXCOORD_0" : 2,
                        "JOINTS_0" : 3,
                        "WEIGHTS_0" : 4
                    },
                    "indices" : 5,
                    "material" : 0
                }
            ]
        }
    ],
    "textures" : [
        {
            "sampler" : 0,
            "source" : 0
        }
    ],
    "images" : [
        {
            "bufferView" : 6,
            "mimeType" : "image/png",
            "name" : "tentacle-texture"
        }
    ],
    "skins" : [
        {
            "inverseBindMatrices" : 6,
            "joints" : [
                10,
                9,
                8,
                7,
                6,
                5,
                4,
                3,
                2,
                1,
                0
            ],
            "name" : "Armature"
        }
    ],
    "accessors" : [
        {
            "bufferView" : 0,
            "componentType" : 5126,
            "count" : 660,
            "max" : [
                0.7731833457946777,
                12.472148895263672,
                1
            ],
            "min" : [
                -0.7070284485816956,
                0,
                -1
            ],
            "type" : "VEC3"
        },
        {
            "bufferView" : 1,
            "componentType" : 5126,
            "count" : 660,
            "type" : "VEC3"
        },
        {
            "bufferView" : 2,
            "componentType" : 5126,
            "count" : 660,
            "type" : "VEC2"
        },
        {
            "bufferView" : 3,
            "componentType" : 5121,
            "count" : 660,
            "type" : "VEC4"
        },
        {
            "bufferView" : 4,
            "componentType" : 5126,
            "count" : 660,
            "type" : "VEC4"
        },
        {
            "bufferView" : 5,
            "componentType" : 5123,
            "count" : 1002,
            "type" : "SCALAR"
        },
        {
            "bufferView" : 7,
            "componentType" : 5126,
            "count" : 11,
            "type" : "MAT4"
        }
    ],
    "bufferViews" : [
        {
            "buffer" : 0,
            "byteLength" : 7920,
            "byteOffset" : 0
        },
        {
            "buffer" : 0,
            "byteLength" : 7920,
            "byteOffset" : 7920
        },
        {
            "buffer" : 0,
            "byteLength" : 5280,
            "byteOffset" : 15840
        },
        {
            "buffer" : 0,
            "byteLength" : 2640,
            "byteOffset" : 21120
        },
        {
            "buffer" : 0,
            "byteLength" : 10560,
            "byteOffset" : 23760
        },
        {
            "buffer" : 0,
            "byteLength" : 2004,
            "byteOffset" : 34320
        },
        {
            "buffer" : 0,
            "byteLength" : 98243,
            "byteOffset" : 36324
        },
        {
            "buffer" : 0,
            "byteLength" : 704,
            "byteOffset" : 134568
        }
    ],
    "samplers" : [
        {
            "magFilter" : 9729,
            "minFilter" : 9987
        }
    ],
    "buffers" : [
        {
            "byteLength" : 135272,
            "uri" : "data:application/octet-stream;base64,"
        }
    ]
}
