<?xml version="1.0" encoding="utf-8"?>
<svg version="1.1" id="Layer_1" xmlns="http://www.w3.org/2000/svg" xmlns:xlink="http://www.w3.org/1999/xlink" x="0px" y="0px"
	 viewBox="0 0 1024 1024" style="enable-background:new 0 0 1024 1024;" xml:space="preserve">
<path d="M912.6,740.1L880.2,624c-4-14.2-21.8-18.8-32.2-8.3l-84.3,86.1c-10.3,10.5-5.4,28.3,8.9,32l19.8,5.1
	c-47.9,90.8-129.5,141-243.2,149.9V413.8h53.3c12,18.4,32.6,30.5,56.2,30.5c37,0,67-30,67-67c0-37-30-67-67-67
	c-23.1,0-43.5,11.7-55.5,29.5h-54v-88.6c26.4-13.6,44.5-41.1,44.5-72.9c0-45.3-36.7-82-82-82s-82,36.7-82,82
	c0,32.2,18.5,60,45.5,73.4v88.1h-53c-12-17.8-32.4-29.5-55.5-29.5c-37,0-67,30-67,67c0,37,30,67,67,67c23.5,0,44.2-12.1,56.2-30.5
	h52.3v475.1c-113.9-8.7-195.7-59-243.7-149.9l20-5.1c14.2-3.7,19.2-21.3,8.9-31.8l-84.6-86.4c-10.3-10.5-28.1-5.9-32,8.2
	l-32.5,116.4c-4,14.1,8.9,27.3,23.1,23.6l22.8-5.9c25.8,54.3,61.5,98.9,106.4,132.7c65.5,49.3,148.8,74.4,247.8,74.5
	c0.1,0,0.2,0,0.2,0c0.1,0,0.2,0,0.3,0c0.1,0,0.2,0,0.3,0c0.1,0,0.2,0,0.2,0c99-0.1,182.4-25.2,247.8-74.5
	c44.9-33.9,80.6-78.4,106.4-132.7l22.7,5.8C903.7,767.5,916.6,754.3,912.6,740.1z M511.8,138.3c22.1,0,40,17.9,40,40
	c0,22.1-17.9,40-40,40c-22.1,0-40-17.9-40-40C471.8,156.2,489.7,138.3,511.8,138.3z"/>
</svg>
