<?xml version="1.0" encoding="UTF-8" standalone="no"?>
<!-- Created with Inkscape (http://www.inkscape.org/) -->

<svg
   width="256"
   height="64"
   viewBox="0 0 67.733332 16.933334"
   version="1.1"
   id="svg2221"
   inkscape:version="1.1.1 (3bf5ae0d25, 2021-09-20, custom)"
   sodipodi:docname="spacebar.svg"
   xmlns:inkscape="http://www.inkscape.org/namespaces/inkscape"
   xmlns:sodipodi="http://sodipodi.sourceforge.net/DTD/sodipodi-0.dtd"
   xmlns="http://www.w3.org/2000/svg"
   xmlns:svg="http://www.w3.org/2000/svg">
  <sodipodi:namedview
     id="namedview2223"
     pagecolor="#505050"
     bordercolor="#eeeeee"
     borderopacity="1"
     inkscape:pageshadow="0"
     inkscape:pageopacity="0"
     inkscape:pagecheckerboard="0"
     inkscape:document-units="mm"
     showgrid="false"
     units="px"
     inkscape:zoom="3.0823513"
     inkscape:cx="127.17564"
     inkscape:cy="52.395066"
     inkscape:window-width="1920"
     inkscape:window-height="1050"
     inkscape:window-x="0"
     inkscape:window-y="0"
     inkscape:window-maximized="1"
     inkscape:current-layer="layer1" />
  <defs
     id="defs2218">
    <rect
       x="9.9520718"
       y="10.343666"
       width="235.9869"
       height="45.474365"
       id="rect10077" />
  </defs>
  <g
     inkscape:label="Layer 1"
     inkscape:groupmode="layer"
     id="layer1">
    <path
       id="rect2247"
       style="fill:#ffffff;fill-opacity:0.852285;stroke-width:0.999999"
       d="M 9.7148438 0 C 4.3326851 1.1842379e-15 0 4.3326851 0 9.7148438 L 0 54.285156 C 1.1842379e-15 59.667315 4.3326851 64 9.7148438 64 L 246.28516 64 C 251.66731 64 256 59.667315 256 54.285156 L 256 9.7148438 C 256 4.3326851 251.66731 0 246.28516 0 L 9.7148438 0 z M 19 18.166016 C 21.309513 18.166016 23.301759 18.663896 24.886719 19.660156 C 25.339564 18.528042 25.746652 18.166016 26.652344 18.166016 C 28.644865 18.166016 28.871094 19.569337 28.871094 21.154297 L 28.871094 25.138672 C 28.871094 26.768916 28.509011 28.173828 26.652344 28.173828 C 24.659823 28.173828 24.56981 26.588922 24.388672 25.728516 C 23.981111 23.917133 21.807643 22.693359 19 22.693359 C 16.147072 22.693359 13.882812 24.187529 13.882812 26.134766 C 13.882812 30.617938 22.848357 28.853295 27.150391 32.294922 C 28.961773 33.744028 29.822266 35.600281 29.822266 37.955078 C 29.822266 42.664673 25.657111 45.833984 19.453125 45.833984 C 17.007758 45.833984 14.607616 45.245758 12.388672 44.068359 C 11.618834 44.974051 11.300725 45.154297 10.576172 45.154297 C 8.991212 45.154297 8.2675781 44.203821 8.2675781 42.166016 L 8.2675781 39.177734 C 8.2675781 37.366352 8.7198672 36.189453 10.53125 36.189453 C 12.523771 36.189453 12.705943 37.910436 12.841797 38.363281 C 13.294643 39.993526 16.147937 41.306641 19.136719 41.306641 C 22.487777 41.306641 25.113281 39.812471 25.113281 37.865234 C 25.113281 33.880192 17.324607 34.965261 12.886719 32.474609 C 10.577206 31.161357 9.1738281 28.762861 9.1738281 26.181641 C 9.1738281 21.607899 13.384713 18.166016 19 18.166016 z M 182.29688 18.166016 C 184.65167 18.166016 186.23591 18.527679 188.72656 19.705078 L 189.17969 19.886719 C 189.76839 19.071597 190.31219 18.798828 191.08203 18.798828 C 192.9387 18.798828 193.3457 20.022964 193.3457 21.789062 L 193.3457 25.591797 C 193.3457 27.267326 192.9387 28.580078 191.08203 28.580078 C 189.27065 28.580078 189.04442 27.177901 188.86328 26.181641 C 188.2293 23.238144 183.88038 22.693359 182.47656 22.693359 C 177.85754 22.693359 174.50781 26.180667 174.50781 30.935547 L 174.50781 33.833984 C 174.50781 38.362441 177.99359 41.306641 183.42773 41.306641 C 189.677 41.306641 189.81253 38 191.75977 38 C 192.98245 38 194.02539 39.040989 194.02539 40.263672 C 194.02539 42.618469 189.72338 45.833984 183.29297 45.833984 C 175.59459 45.833984 169.97852 40.807083 169.97852 33.923828 L 169.97852 30.935547 C 169.97852 23.690016 175.32305 18.166016 182.29688 18.166016 z M 63.378906 18.798828 L 73.929688 18.798828 C 79.680828 18.798828 83.757812 22.330835 83.757812 27.357422 C 83.757812 31.070757 81.629459 36.142578 73.025391 36.142578 L 68.585938 36.142578 L 68.585938 40.671875 L 73.070312 40.671875 C 74.655272 40.671875 76.058594 41.033595 76.058594 42.935547 C 76.058594 44.65636 74.836411 45.201172 73.070312 45.201172 L 63.378906 45.201172 C 60.84297 45.201172 60.390625 43.886523 60.390625 42.935547 C 60.390625 41.07888 61.703377 40.671875 63.378906 40.671875 L 64.058594 40.671875 L 64.058594 23.328125 L 63.378906 23.328125 C 61.703377 23.328125 60.390625 22.92112 60.390625 21.064453 C 60.390625 19.207786 61.612808 18.798828 63.378906 18.798828 z M 120.39258 18.798828 L 130.17383 18.798828 L 139.18555 40.671875 C 140.81579 40.671875 142.26367 41.033595 142.26367 42.935547 C 142.26367 44.74693 140.95092 45.201172 139.27539 45.201172 L 132.98047 45.201172 C 130.44453 45.201172 129.99219 43.886523 129.99219 42.935547 C 129.99219 41.07888 131.21437 40.671875 132.98047 40.671875 L 134.02344 40.671875 L 132.98047 38.044922 L 122.20312 38.044922 L 121.16211 40.671875 L 122.20312 40.671875 C 123.78808 40.671875 125.19141 41.033595 125.19141 42.935547 C 125.19141 44.74693 123.87865 45.201172 122.20312 45.201172 L 116.18164 45.201172 C 114.18912 45.201172 113.19141 44.429938 113.19141 42.935547 C 113.19141 40.98831 114.55103 40.671875 116.22656 40.671875 L 123.24609 23.328125 L 120.39258 23.328125 C 118.76233 23.328125 117.35742 22.966405 117.35742 21.064453 C 117.35742 19.117217 118.71705 18.798828 120.39258 18.798828 z M 226.4043 18.798828 L 246.73633 18.798828 L 246.73633 25.591797 C 246.73633 27.31261 246.32932 28.626953 244.47266 28.626953 C 242.5707 28.626953 242.20703 27.222041 242.20703 25.591797 L 242.20703 23.328125 L 231.61133 23.328125 L 231.61133 29.712891 L 235.46094 29.712891 L 235.46094 29.396484 C 235.46094 27.76624 235.82302 26.361328 237.67969 26.361328 C 239.4005 26.361328 239.94336 27.630386 239.94336 29.396484 L 239.94336 34.513672 C 239.94336 36.143916 239.53599 37.501953 237.72461 37.501953 C 235.86794 37.501953 235.46094 36.189201 235.46094 34.513672 L 235.46094 34.197266 L 231.61133 34.197266 L 231.61133 40.671875 L 243.20312 40.671875 L 243.20312 38.316406 C 243.20313 36.505023 243.65737 35.283203 245.46875 35.283203 C 247.3707 35.283203 247.73242 36.686162 247.73242 38.316406 L 247.73242 45.201172 L 226.4043 45.201172 C 223.86836 45.201172 223.41406 43.886523 223.41406 42.935547 C 223.41406 41.033595 224.81934 40.671875 226.4043 40.671875 L 227.08203 40.671875 L 227.08203 23.328125 L 226.4043 23.328125 C 224.72877 23.328125 223.41406 22.92112 223.41406 21.064453 C 223.41406 19.207786 224.6382 18.798828 226.4043 18.798828 z M 68.585938 23.328125 L 68.585938 31.615234 L 73.929688 31.615234 C 77.054323 31.615234 78.957031 30.030076 78.957031 27.494141 C 78.957031 24.91292 77.054323 23.328125 73.929688 23.328125 L 68.585938 23.328125 z M 127.5918 24.822266 L 124.01562 33.517578 L 131.125 33.517578 L 127.5918 24.822266 z "
       transform="scale(0.26458333)" />
    <rect
       style="fill:#ffffff;fill-opacity:0.852285;stroke-width:0.264583"
       id="rect2249"
       width="1.2335881"
       height="1.2902546"
       x="64.73806"
       y="2.0591097"
       ry="0.61679405" />
  </g>
</svg>
