{
    "asset" : {
        "generator" : "Khronos glTF Blender I/O v1.7.33",
        "version" : "2.0"
    },
    "scene" : 0,
    "scenes" : [
        {
            "name" : "Scene",
            "nodes" : [
                0
            ]
        }
    ],
    "nodes" : [
        {
            "mesh" : 0,
            "name" : "Curve",
            "rotation" : [
                0.7071068286895752,
                0,
                0,
                0.7071068286895752
            ]
        }
    ],
    "animations" : [
        {
            "channels" : [
                {
                    "sampler" : 0,
                    "target" : {
                        "node" : 0,
                        "path" : "rotation"
                    }
                },
                {
                    "sampler" : 1,
                    "target" : {
                        "node" : 0,
                        "path" : "translation"
                    }
                }
            ],
            "name" : "CurveAction",
            "samplers" : [
                {
                    "input" : 4,
                    "interpolation" : "LINEAR",
                    "output" : 5
                },
                {
                    "input" : 6,
                    "interpolation" : "STEP",
                    "output" : 7
                }
            ]
        }
    ],
    "materials" : [
        {
            "doubleSided" : true,
            "name" : "Material.002",
            "pbrMetallicRoughness" : {
                "baseColorFactor" : [
                    0.06250729411840439,
                    0.09761607646942139,
                    0.3427761495113373,
                    1
                ],
                "metallicFactor" : 0,
                "roughnessFactor" : 0.8657143115997314
            }
        }
    ],
    "meshes" : [
        {
            "name" : "Curve.028",
            "primitives" : [
                {
                    "attributes" : {
                        "POSITION" : 0,
                        "NORMAL" : 1,
                        "TEXCOORD_0" : 2
                    },
                    "indices" : 3,
                    "material" : 0
                }
            ]
        }
    ],
    "accessors" : [
        {
            "bufferView" : 0,
            "componentType" : 5126,
            "count" : 4350,
            "max" : [
                0.11320702731609344,
                0.014999975450336933,
                0.09904155135154724
            ],
            "min" : [
                -0.11331673711538315,
                -0.005000024102628231,
                -0.14613458514213562
            ],
            "type" : "VEC3"
        },
        {
            "bufferView" : 1,
            "componentType" : 5126,
            "count" : 4350,
            "type" : "VEC3"
        },
        {
            "bufferView" : 2,
            "componentType" : 5126,
            "count" : 4350,
            "type" : "VEC2"
        },
        {
            "bufferView" : 3,
            "componentType" : 5123,
            "count" : 6252,
            "type" : "SCALAR"
        },
        {
            "bufferView" : 4,
            "componentType" : 5126,
            "count" : 50,
            "max" : [
                2.0833333333333335
            ],
            "min" : [
                0.041666666666666664
            ],
            "type" : "SCALAR"
        },
        {
            "bufferView" : 5,
            "componentType" : 5126,
            "count" : 50,
            "type" : "VEC4"
        },
        {
            "bufferView" : 6,
            "componentType" : 5126,
            "count" : 1,
            "max" : [
                0.041666666666666664
            ],
            "min" : [
                0.041666666666666664
            ],
            "type" : "SCALAR"
        },
        {
            "bufferView" : 7,
            "componentType" : 5126,
            "count" : 1,
            "type" : "VEC3"
        }
    ],
    "bufferViews" : [
        {
            "buffer" : 0,
            "byteLength" : 52200,
            "byteOffset" : 0
        },
        {
            "buffer" : 0,
            "byteLength" : 52200,
            "byteOffset" : 52200
        },
        {
            "buffer" : 0,
            "byteLength" : 34800,
            "byteOffset" : 104400
        },
        {
            "buffer" : 0,
            "byteLength" : 12504,
            "byteOffset" : 139200
        },
        {
            "buffer" : 0,
            "byteLength" : 200,
            "byteOffset" : 151704
        },
        {
            "buffer" : 0,
            "byteLength" : 800,
            "byteOffset" : 151904
        },
        {
            "buffer" : 0,
            "byteLength" : 4,
            "byteOffset" : 152704
        },
        {
            "buffer" : 0,
            "byteLength" : 12,
            "byteOffset" : 152708
        }
    ],
    "buffers" : [
        {
            "byteLength" : 152720,
            "uri" : "data:application/octet-stream;base64,"
        }
    ]
}
