{
    "asset" : {
        "generator" : "Khronos glTF Blender I/O v1.7.33",
        "version" : "2.0"
    },
    "scene" : 0,
    "scenes" : [
        {
            "name" : "Scene",
            "nodes" : [
                0,
                1,
                2,
                3
            ]
        }
    ],
    "nodes" : [
        {
            "mesh" : 0,
            "name" : "Icosphere",
            "scale" : [
                2.231140613555908,
                0.5665581226348877,
                0.8624268770217896
            ]
        },
        {
            "mesh" : 1,
            "name" : "Cube",
            "scale" : [
                0.7760753035545349,
                0.05713581666350365,
                2.7111194133758545
            ]
        },
        {
            "name" : "Empty"
        },
        {
            "mesh" : 2,
            "name" : "Sphere",
            "scale" : [
                0.03730487823486328,
                0.03730487823486328,
                0.03730487823486328
            ],
            "translation" : [
                2.4251248836517334,
                0.05871189758181572,
                -0.1887589991092682
            ]
        }
    ],
    "materials" : [
        {
            "doubleSided" : true,
            "name" : "Body",
            "pbrMetallicRoughness" : {
                "baseColorFactor" : [
                    0.9758312702178955,
                    0.9758312702178955,
                    0.9758312702178955,
                    1
                ],
                "metallicFactor" : 0,
                "roughnessFactor" : 0.8628571629524231
            }
        },
        {
            "doubleSided" : true,
            "name" : "Material",
            "pbrMetallicRoughness" : {
                "baseColorFactor" : [
                    0.030818141996860504,
                    0.030818141996860504,
                    0.030818141996860504,
                    1
                ],
                "metallicFactor" : 0,
                "roughnessFactor" : 0.8257142901420593
            }
        },
        {
            "doubleSided" : true,
            "name" : "Material.002",
            "pbrMetallicRoughness" : {
                "baseColorFactor" : [
                    0.8000000715255737,
                    0.6839603185653687,
                    0.029969194903969765,
                    1
                ],
                "metallicFactor" : 0,
                "roughnessFactor" : 0.5
            }
        }
    ],
    "meshes" : [
        {
            "name" : "Icosphere",
            "primitives" : [
                {
                    "attributes" : {
                        "POSITION" : 0,
                        "NORMAL" : 1,
                        "TEXCOORD_0" : 2
                    },
                    "indices" : 3,
                    "material" : 0
                },
                {
                    "attributes" : {
                        "POSITION" : 4,
                        "NORMAL" : 5,
                        "TEXCOORD_0" : 6
                    },
                    "indices" : 7,
                    "material" : 1
                },
                {
                    "attributes" : {
                        "POSITION" : 8,
                        "NORMAL" : 9,
                        "TEXCOORD_0" : 10
                    },
                    "indices" : 11,
                    "material" : 2
                }
            ]
        },
        {
            "name" : "Cube.001",
            "primitives" : [
                {
                    "attributes" : {
                        "POSITION" : 12,
                        "NORMAL" : 13,
                        "TEXCOORD_0" : 14
                    },
                    "indices" : 15,
                    "material" : 0
                },
                {
                    "attributes" : {
                        "POSITION" : 16,
                        "NORMAL" : 17,
                        "TEXCOORD_0" : 18
                    },
                    "indices" : 19,
                    "material" : 1
                }
            ]
        },
        {
            "name" : "Sphere",
            "primitives" : [
                {
                    "attributes" : {
                        "POSITION" : 20,
                        "NORMAL" : 21,
                        "TEXCOORD_0" : 22
                    },
                    "indices" : 23,
                    "material" : 1
                }
            ]
        }
    ],
    "accessors" : [
        {
            "bufferView" : 0,
            "componentType" : 5126,
            "count" : 162,
            "max" : [
                1.2155272960662842,
                1,
                0.30901139974594116
            ],
            "min" : [
                -1.2508156299591064,
                -1,
                -1.0946550369262695
            ],
            "type" : "VEC3"
        },
        {
            "bufferView" : 1,
            "componentType" : 5126,
            "count" : 162,
            "type" : "VEC3"
        },
        {
            "bufferView" : 2,
            "componentType" : 5126,
            "count" : 162,
            "type" : "VEC2"
        },
        {
            "bufferView" : 3,
            "componentType" : 5123,
            "count" : 186,
            "type" : "SCALAR"
        },
        {
            "bufferView" : 4,
            "componentType" : 5126,
            "count" : 37,
            "max" : [
                -0.9510578513145447,
                0.39000988006591797,
                0.09330500662326813
            ],
            "min" : [
                -1.3662694692611694,
                -0.21973055601119995,
                -1.0946550369262695
            ],
            "type" : "VEC3"
        },
        {
            "bufferView" : 5,
            "componentType" : 5126,
            "count" : 37,
            "type" : "VEC3"
        },
        {
            "bufferView" : 6,
            "componentType" : 5126,
            "count" : 37,
            "type" : "VEC2"
        },
        {
            "bufferView" : 7,
            "componentType" : 5123,
            "count" : 51,
            "type" : "SCALAR"
        },
        {
            "bufferView" : 8,
            "componentType" : 5126,
            "count" : 21,
            "max" : [
                1.4161559343338013,
                0.05382575839757919,
                0.007497143000364304
            ],
            "min" : [
                1.1453218460083008,
                -0.22119872272014618,
                -0.1449083685874939
            ],
            "type" : "VEC3"
        },
        {
            "bufferView" : 9,
            "componentType" : 5126,
            "count" : 21,
            "type" : "VEC3"
        },
        {
            "bufferView" : 10,
            "componentType" : 5126,
            "count" : 21,
            "type" : "VEC2"
        },
        {
            "bufferView" : 11,
            "componentType" : 5123,
            "count" : 27,
            "type" : "SCALAR"
        },
        {
            "bufferView" : 12,
            "componentType" : 5126,
            "count" : 36,
            "max" : [
                1,
                5.185153961181641,
                -0.1757887601852417
            ],
            "min" : [
                -1.2057483196258545,
                -1,
                -1.8231427669525146
            ],
            "type" : "VEC3"
        },
        {
            "bufferView" : 13,
            "componentType" : 5126,
            "count" : 36,
            "type" : "VEC3"
        },
        {
            "bufferView" : 14,
            "componentType" : 5126,
            "count" : 36,
            "type" : "VEC2"
        },
        {
            "bufferView" : 15,
            "componentType" : 5123,
            "count" : 54,
            "type" : "SCALAR"
        },
        {
            "bufferView" : 16,
            "componentType" : 5126,
            "count" : 20,
            "max" : [
                -0.2858121395111084,
                0.5350843071937561,
                -1.8008251190185547
            ],
            "min" : [
                -1.389540672302246,
                -4.51558256149292,
                -1.984829306602478
            ],
            "type" : "VEC3"
        },
        {
            "bufferView" : 17,
            "componentType" : 5126,
            "count" : 20,
            "type" : "VEC3"
        },
        {
            "bufferView" : 18,
            "componentType" : 5126,
            "count" : 20,
            "type" : "VEC2"
        },
        {
            "bufferView" : 19,
            "componentType" : 5123,
            "count" : 30,
            "type" : "SCALAR"
        },
        {
            "bufferView" : 20,
            "componentType" : 5126,
            "count" : 1984,
            "max" : [
                0.9999997019767761,
                1,
                0.9999994039535522
            ],
            "min" : [
                -0.9999990463256836,
                -1,
                -0.9999987483024597
            ],
            "type" : "VEC3"
        },
        {
            "bufferView" : 21,
            "componentType" : 5126,
            "count" : 1984,
            "type" : "VEC3"
        },
        {
            "bufferView" : 22,
            "componentType" : 5126,
            "count" : 1984,
            "type" : "VEC2"
        },
        {
            "bufferView" : 23,
            "componentType" : 5123,
            "count" : 2880,
            "type" : "SCALAR"
        }
    ],
    "bufferViews" : [
        {
            "buffer" : 0,
            "byteLength" : 1944,
            "byteOffset" : 0
        },
        {
            "buffer" : 0,
            "byteLength" : 1944,
            "byteOffset" : 1944
        },
        {
            "buffer" : 0,
            "byteLength" : 1296,
            "byteOffset" : 3888
        },
        {
            "buffer" : 0,
            "byteLength" : 372,
            "byteOffset" : 5184
        },
        {
            "buffer" : 0,
            "byteLength" : 444,
            "byteOffset" : 5556
        },
        {
            "buffer" : 0,
            "byteLength" : 444,
            "byteOffset" : 6000
        },
        {
            "buffer" : 0,
            "byteLength" : 296,
            "byteOffset" : 6444
        },
        {
            "buffer" : 0,
            "byteLength" : 102,
            "byteOffset" : 6740
        },
        {
            "buffer" : 0,
            "byteLength" : 252,
            "byteOffset" : 6844
        },
        {
            "buffer" : 0,
            "byteLength" : 252,
            "byteOffset" : 7096
        },
        {
            "buffer" : 0,
            "byteLength" : 168,
            "byteOffset" : 7348
        },
        {
            "buffer" : 0,
            "byteLength" : 54,
            "byteOffset" : 7516
        },
        {
            "buffer" : 0,
            "byteLength" : 432,
            "byteOffset" : 7572
        },
        {
            "buffer" : 0,
            "byteLength" : 432,
            "byteOffset" : 8004
        },
        {
            "buffer" : 0,
            "byteLength" : 288,
            "byteOffset" : 8436
        },
        {
            "buffer" : 0,
            "byteLength" : 108,
            "byteOffset" : 8724
        },
        {
            "buffer" : 0,
            "byteLength" : 240,
            "byteOffset" : 8832
        },
        {
            "buffer" : 0,
            "byteLength" : 240,
            "byteOffset" : 9072
        },
        {
            "buffer" : 0,
            "byteLength" : 160,
            "byteOffset" : 9312
        },
        {
            "buffer" : 0,
            "byteLength" : 60,
            "byteOffset" : 9472
        },
        {
            "buffer" : 0,
            "byteLength" : 23808,
            "byteOffset" : 9532
        },
        {
            "buffer" : 0,
            "byteLength" : 23808,
            "byteOffset" : 33340
        },
        {
            "buffer" : 0,
            "byteLength" : 15872,
            "byteOffset" : 57148
        },
        {
            "buffer" : 0,
            "byteLength" : 5760,
            "byteOffset" : 73020
        }
    ],
    "buffers" : [
        {
            "byteLength" : 78780,
            "uri" : "data:application/octet-stream;base64,"
        }
    ]
}
