{
    "asset" : {
        "generator" : "Khronos glTF Blender I/O v1.7.33",
        "version" : "2.0"
    },
    "scene" : 0,
    "scenes" : [
        {
            "name" : "Scene",
            "nodes" : [
                0,
                1,
                2,
                3,
                4
            ]
        }
    ],
    "nodes" : [
        {
            "mesh" : 0,
            "name" : "Icosphere",
            "scale" : [
                2.231140613555908,
                0.5665581226348877,
                0.8624268770217896
            ]
        },
        {
            "mesh" : 1,
            "name" : "Cube",
            "scale" : [
                0.7760753035545349,
                0.05713581666350365,
                2.7111194133758545
            ]
        },
        {
            "name" : "Empty"
        },
        {
            "mesh" : 2,
            "name" : "Sphere",
            "scale" : [
                0.03730487823486328,
                0.03730487823486328,
                0.03730487823486328
            ],
            "translation" : [
                2.4251248836517334,
                0.05871189758181572,
                -0.1887589991092682
            ]
        },
        {
            "mesh" : 3,
            "name" : "Cube.001",
            "scale" : [
                0.7760753035545349,
                0.05713581666350365,
                2.7111194133758545
            ]
        }
    ],
    "animations" : [
        {
            "channels" : [
                {
                    "sampler" : 0,
                    "target" : {
                        "node" : 1,
                        "path" : "rotation"
                    }
                },
                {
                    "sampler" : 1,
                    "target" : {
                        "node" : 1,
                        "path" : "translation"
                    }
                },
                {
                    "sampler" : 2,
                    "target" : {
                        "node" : 1,
                        "path" : "scale"
                    }
                }
            ],
            "name" : "CubeAction",
            "samplers" : [
                {
                    "input" : 32,
                    "interpolation" : "LINEAR",
                    "output" : 33
                },
                {
                    "input" : 34,
                    "interpolation" : "LINEAR",
                    "output" : 35
                },
                {
                    "input" : 34,
                    "interpolation" : "LINEAR",
                    "output" : 36
                }
            ]
        },
        {
            "channels" : [
                {
                    "sampler" : 0,
                    "target" : {
                        "node" : 4,
                        "path" : "rotation"
                    }
                },
                {
                    "sampler" : 1,
                    "target" : {
                        "node" : 4,
                        "path" : "translation"
                    }
                },
                {
                    "sampler" : 2,
                    "target" : {
                        "node" : 4,
                        "path" : "scale"
                    }
                }
            ],
            "name" : "CubeAction.001",
            "samplers" : [
                {
                    "input" : 32,
                    "interpolation" : "LINEAR",
                    "output" : 37
                },
                {
                    "input" : 34,
                    "interpolation" : "LINEAR",
                    "output" : 38
                },
                {
                    "input" : 34,
                    "interpolation" : "LINEAR",
                    "output" : 39
                }
            ]
        }
    ],
    "materials" : [
        {
            "doubleSided" : true,
            "name" : "Body",
            "pbrMetallicRoughness" : {
                "baseColorFactor" : [
                    0.9758312702178955,
                    0.9758312702178955,
                    0.9758312702178955,
                    1
                ],
                "metallicFactor" : 0,
                "roughnessFactor" : 0.8628571629524231
            }
        },
        {
            "doubleSided" : true,
            "name" : "Material",
            "pbrMetallicRoughness" : {
                "baseColorFactor" : [
                    0.030818141996860504,
                    0.030818141996860504,
                    0.030818141996860504,
                    1
                ],
                "metallicFactor" : 0,
                "roughnessFactor" : 0.8257142901420593
            }
        },
        {
            "doubleSided" : true,
            "name" : "Material.002",
            "pbrMetallicRoughness" : {
                "baseColorFactor" : [
                    0.8000000715255737,
                    0.6839603185653687,
                    0.029969194903969765,
                    1
                ],
                "metallicFactor" : 0,
                "roughnessFactor" : 0.5
            }
        }
    ],
    "meshes" : [
        {
            "name" : "Icosphere",
            "primitives" : [
                {
                    "attributes" : {
                        "POSITION" : 0,
                        "NORMAL" : 1,
                        "TEXCOORD_0" : 2
                    },
                    "indices" : 3,
                    "material" : 0
                },
                {
                    "attributes" : {
                        "POSITION" : 4,
                        "NORMAL" : 5,
                        "TEXCOORD_0" : 6
                    },
                    "indices" : 7,
                    "material" : 1
                },
                {
                    "attributes" : {
                        "POSITION" : 8,
                        "NORMAL" : 9,
                        "TEXCOORD_0" : 10
                    },
                    "indices" : 11,
                    "material" : 2
                }
            ]
        },
        {
            "name" : "Cube.001",
            "primitives" : [
                {
                    "attributes" : {
                        "POSITION" : 12,
                        "NORMAL" : 13,
                        "TEXCOORD_0" : 14
                    },
                    "indices" : 15,
                    "material" : 0
                },
                {
                    "attributes" : {
                        "POSITION" : 16,
                        "NORMAL" : 17,
                        "TEXCOORD_0" : 18
                    },
                    "indices" : 19,
                    "material" : 1
                }
            ]
        },
        {
            "name" : "Sphere",
            "primitives" : [
                {
                    "attributes" : {
                        "POSITION" : 20,
                        "NORMAL" : 21,
                        "TEXCOORD_0" : 22
                    },
                    "indices" : 23,
                    "material" : 1
                }
            ]
        },
        {
            "name" : "Cube.002",
            "primitives" : [
                {
                    "attributes" : {
                        "POSITION" : 24,
                        "NORMAL" : 25,
                        "TEXCOORD_0" : 26
                    },
                    "indices" : 27,
                    "material" : 0
                },
                {
                    "attributes" : {
                        "POSITION" : 28,
                        "NORMAL" : 29,
                        "TEXCOORD_0" : 30
                    },
                    "indices" : 31,
                    "material" : 1
                }
            ]
        }
    ],
    "accessors" : [
        {
            "bufferView" : 0,
            "componentType" : 5126,
            "count" : 324,
            "max" : [
                1.2155272960662842,
                1,
                1.0946550369262695
            ],
            "min" : [
                -1.2508156299591064,
                -1,
                -1.0946550369262695
            ],
            "type" : "VEC3"
        },
        {
            "bufferView" : 1,
            "componentType" : 5126,
            "count" : 324,
            "type" : "VEC3"
        },
        {
            "bufferView" : 2,
            "componentType" : 5126,
            "count" : 324,
            "type" : "VEC2"
        },
        {
            "bufferView" : 3,
            "componentType" : 5123,
            "count" : 372,
            "type" : "SCALAR"
        },
        {
            "bufferView" : 4,
            "componentType" : 5126,
            "count" : 74,
            "max" : [
                -0.9510577917098999,
                0.39000988006591797,
                1.0946550369262695
            ],
            "min" : [
                -1.3662694692611694,
                -0.21973055601119995,
                -1.0946550369262695
            ],
            "type" : "VEC3"
        },
        {
            "bufferView" : 5,
            "componentType" : 5126,
            "count" : 74,
            "type" : "VEC3"
        },
        {
            "bufferView" : 6,
            "componentType" : 5126,
            "count" : 74,
            "type" : "VEC2"
        },
        {
            "bufferView" : 7,
            "componentType" : 5123,
            "count" : 102,
            "type" : "SCALAR"
        },
        {
            "bufferView" : 8,
            "componentType" : 5126,
            "count" : 42,
            "max" : [
                1.4161559343338013,
                0.05382575839757919,
                0.1449083685874939
            ],
            "min" : [
                1.1453217267990112,
                -0.22119870781898499,
                -0.1449083685874939
            ],
            "type" : "VEC3"
        },
        {
            "bufferView" : 9,
            "componentType" : 5126,
            "count" : 42,
            "type" : "VEC3"
        },
        {
            "bufferView" : 10,
            "componentType" : 5126,
            "count" : 42,
            "type" : "VEC2"
        },
        {
            "bufferView" : 11,
            "componentType" : 5123,
            "count" : 54,
            "type" : "SCALAR"
        },
        {
            "bufferView" : 12,
            "componentType" : 5126,
            "count" : 36,
            "max" : [
                1,
                5.185153961181641,
                -0.1757887601852417
            ],
            "min" : [
                -1.2057483196258545,
                -1,
                -1.8231427669525146
            ],
            "type" : "VEC3"
        },
        {
            "bufferView" : 13,
            "componentType" : 5126,
            "count" : 36,
            "type" : "VEC3"
        },
        {
            "bufferView" : 14,
            "componentType" : 5126,
            "count" : 36,
            "type" : "VEC2"
        },
        {
            "bufferView" : 15,
            "componentType" : 5123,
            "count" : 54,
            "type" : "SCALAR"
        },
        {
            "bufferView" : 16,
            "componentType" : 5126,
            "count" : 20,
            "max" : [
                -0.2858121395111084,
                0.5350843071937561,
                -1.8008251190185547
            ],
            "min" : [
                -1.389540672302246,
                -4.51558256149292,
                -1.984829306602478
            ],
            "type" : "VEC3"
        },
        {
            "bufferView" : 17,
            "componentType" : 5126,
            "count" : 20,
            "type" : "VEC3"
        },
        {
            "bufferView" : 18,
            "componentType" : 5126,
            "count" : 20,
            "type" : "VEC2"
        },
        {
            "bufferView" : 19,
            "componentType" : 5123,
            "count" : 30,
            "type" : "SCALAR"
        },
        {
            "bufferView" : 20,
            "componentType" : 5126,
            "count" : 3968,
            "max" : [
                0.9999997019767761,
                1.0000001192092896,
                11.11980152130127
            ],
            "min" : [
                -0.9999990463256836,
                -1,
                -0.9999987483024597
            ],
            "type" : "VEC3"
        },
        {
            "bufferView" : 21,
            "componentType" : 5126,
            "count" : 3968,
            "type" : "VEC3"
        },
        {
            "bufferView" : 22,
            "componentType" : 5126,
            "count" : 3968,
            "type" : "VEC2"
        },
        {
            "bufferView" : 23,
            "componentType" : 5123,
            "count" : 5760,
            "type" : "SCALAR"
        },
        {
            "bufferView" : 24,
            "componentType" : 5126,
            "count" : 36,
            "max" : [
                1,
                4.547710418701172,
                1.823032259941101
            ],
            "min" : [
                -1.2057483196258545,
                -2.0405306816101074,
                0.17549128830432892
            ],
            "type" : "VEC3"
        },
        {
            "bufferView" : 25,
            "componentType" : 5126,
            "count" : 36,
            "type" : "VEC3"
        },
        {
            "bufferView" : 26,
            "componentType" : 5126,
            "count" : 36,
            "type" : "VEC2"
        },
        {
            "bufferView" : 27,
            "componentType" : 5123,
            "count" : 54,
            "type" : "SCALAR"
        },
        {
            "bufferView" : 28,
            "componentType" : 5126,
            "count" : 20,
            "max" : [
                -0.2858121395111084,
                -0.6073423027992249,
                1.983552098274231
            ],
            "min" : [
                -1.389540672302246,
                -5.774283409118652,
                1.8005132675170898
            ],
            "type" : "VEC3"
        },
        {
            "bufferView" : 29,
            "componentType" : 5126,
            "count" : 20,
            "type" : "VEC3"
        },
        {
            "bufferView" : 30,
            "componentType" : 5126,
            "count" : 20,
            "type" : "VEC2"
        },
        {
            "bufferView" : 31,
            "componentType" : 5123,
            "count" : 30,
            "type" : "SCALAR"
        },
        {
            "bufferView" : 32,
            "componentType" : 5126,
            "count" : 90,
            "max" : [
                3.75
            ],
            "min" : [
                0.041666666666666664
            ],
            "type" : "SCALAR"
        },
        {
            "bufferView" : 33,
            "componentType" : 5126,
            "count" : 90,
            "type" : "VEC4"
        },
        {
            "bufferView" : 34,
            "componentType" : 5126,
            "count" : 2,
            "max" : [
                3.5416666666666665
            ],
            "min" : [
                1.6666666666666667
            ],
            "type" : "SCALAR"
        },
        {
            "bufferView" : 35,
            "componentType" : 5126,
            "count" : 2,
            "type" : "VEC3"
        },
        {
            "bufferView" : 36,
            "componentType" : 5126,
            "count" : 2,
            "type" : "VEC3"
        },
        {
            "bufferView" : 37,
            "componentType" : 5126,
            "count" : 90,
            "type" : "VEC4"
        },
        {
            "bufferView" : 38,
            "componentType" : 5126,
            "count" : 2,
            "type" : "VEC3"
        },
        {
            "bufferView" : 39,
            "componentType" : 5126,
            "count" : 2,
            "type" : "VEC3"
        }
    ],
    "bufferViews" : [
        {
            "buffer" : 0,
            "byteLength" : 3888,
            "byteOffset" : 0
        },
        {
            "buffer" : 0,
            "byteLength" : 3888,
            "byteOffset" : 3888
        },
        {
            "buffer" : 0,
            "byteLength" : 2592,
            "byteOffset" : 7776
        },
        {
            "buffer" : 0,
            "byteLength" : 744,
            "byteOffset" : 10368
        },
        {
            "buffer" : 0,
            "byteLength" : 888,
            "byteOffset" : 11112
        },
        {
            "buffer" : 0,
            "byteLength" : 888,
            "byteOffset" : 12000
        },
        {
            "buffer" : 0,
            "byteLength" : 592,
            "byteOffset" : 12888
        },
        {
            "buffer" : 0,
            "byteLength" : 204,
            "byteOffset" : 13480
        },
        {
            "buffer" : 0,
            "byteLength" : 504,
            "byteOffset" : 13684
        },
        {
            "buffer" : 0,
            "byteLength" : 504,
            "byteOffset" : 14188
        },
        {
            "buffer" : 0,
            "byteLength" : 336,
            "byteOffset" : 14692
        },
        {
            "buffer" : 0,
            "byteLength" : 108,
            "byteOffset" : 15028
        },
        {
            "buffer" : 0,
            "byteLength" : 432,
            "byteOffset" : 15136
        },
        {
            "buffer" : 0,
            "byteLength" : 432,
            "byteOffset" : 15568
        },
        {
            "buffer" : 0,
            "byteLength" : 288,
            "byteOffset" : 16000
        },
        {
            "buffer" : 0,
            "byteLength" : 108,
            "byteOffset" : 16288
        },
        {
            "buffer" : 0,
            "byteLength" : 240,
            "byteOffset" : 16396
        },
        {
            "buffer" : 0,
            "byteLength" : 240,
            "byteOffset" : 16636
        },
        {
            "buffer" : 0,
            "byteLength" : 160,
            "byteOffset" : 16876
        },
        {
            "buffer" : 0,
            "byteLength" : 60,
            "byteOffset" : 17036
        },
        {
            "buffer" : 0,
            "byteLength" : 47616,
            "byteOffset" : 17096
        },
        {
            "buffer" : 0,
            "byteLength" : 47616,
            "byteOffset" : 64712
        },
        {
            "buffer" : 0,
            "byteLength" : 31744,
            "byteOffset" : 112328
        },
        {
            "buffer" : 0,
            "byteLength" : 11520,
            "byteOffset" : 144072
        },
        {
            "buffer" : 0,
            "byteLength" : 432,
            "byteOffset" : 155592
        },
        {
            "buffer" : 0,
            "byteLength" : 432,
            "byteOffset" : 156024
        },
        {
            "buffer" : 0,
            "byteLength" : 288,
            "byteOffset" : 156456
        },
        {
            "buffer" : 0,
            "byteLength" : 108,
            "byteOffset" : 156744
        },
        {
            "buffer" : 0,
            "byteLength" : 240,
            "byteOffset" : 156852
        },
        {
            "buffer" : 0,
            "byteLength" : 240,
            "byteOffset" : 157092
        },
        {
            "buffer" : 0,
            "byteLength" : 160,
            "byteOffset" : 157332
        },
        {
            "buffer" : 0,
            "byteLength" : 60,
            "byteOffset" : 157492
        },
        {
            "buffer" : 0,
            "byteLength" : 360,
            "byteOffset" : 157552
        },
        {
            "buffer" : 0,
            "byteLength" : 1440,
            "byteOffset" : 157912
        },
        {
            "buffer" : 0,
            "byteLength" : 8,
            "byteOffset" : 159352
        },
        {
            "buffer" : 0,
            "byteLength" : 24,
            "byteOffset" : 159360
        },
        {
            "buffer" : 0,
            "byteLength" : 24,
            "byteOffset" : 159384
        },
        {
            "buffer" : 0,
            "byteLength" : 1440,
            "byteOffset" : 159408
        },
        {
            "buffer" : 0,
            "byteLength" : 24,
            "byteOffset" : 160848
        },
        {
            "buffer" : 0,
            "byteLength" : 24,
            "byteOffset" : 160872
        }
    ],
    "buffers" : [
        {
            "byteLength" : 160896,
            "uri" : "data:application/octet-stream;base64,"
        }
    ]
}
