{
    "asset" : {
        "generator" : "Khronos glTF Blender I/O v1.7.33",
        "version" : "2.0"
    },
    "scene" : 0,
    "scenes" : [
        {
            "name" : "Scene",
            "nodes" : [
                0,
                1,
                2,
                3,
                4
            ]
        }
    ],
    "nodes" : [
        {
            "mesh" : 0,
            "name" : "cannon.001",
            "translation" : [
                -0.41969096660614014,
                1.1645013093948364,
                -0.21883434057235718
            ]
        },
        {
            "mesh" : 1,
            "name" : "ropes"
        },
        {
            "mesh" : 2,
            "name" : "cannon"
        },
        {
            "mesh" : 3,
            "name" : "boat"
        },
        {
            "mesh" : 4,
            "name" : "cloth"
        }
    ],
    "materials" : [
        {
            "doubleSided" : true,
            "name" : "Material",
            "pbrMetallicRoughness" : {
                "baseColorFactor" : [
                    0.009450805373489857,
                    0.009450805373489857,
                    0.009450805373489857,
                    1
                ],
                "metallicFactor" : 0,
                "roughnessFactor" : 0.5
            }
        },
        {
            "doubleSided" : true,
            "name" : "ship material",
            "pbrMetallicRoughness" : {
                "baseColorFactor" : [
                    0.39722132682800293,
                    0.15459974110126495,
                    0.10098711401224136,
                    1
                ],
                "metallicFactor" : 0,
                "roughnessFactor" : 0.5
            }
        },
        {
            "doubleSided" : true,
            "name" : "Material.001",
            "pbrMetallicRoughness" : {
                "baseColorFactor" : [
                    0.800000011920929,
                    0.800000011920929,
                    0.800000011920929,
                    1
                ],
                "metallicFactor" : 0,
                "roughnessFactor" : 0.5
            }
        },
        {
            "doubleSided" : true,
            "name" : "Material.002",
            "pbrMetallicRoughness" : {
                "baseColorFactor" : [
                    0.004255377687513828,
                    0.004255377687513828,
                    0.004255377687513828,
                    1
                ],
                "metallicFactor" : 0,
                "roughnessFactor" : 0.9342857003211975
            }
        }
    ],
    "meshes" : [
        {
            "name" : "Cube.015",
            "primitives" : [
                {
                    "attributes" : {
                        "POSITION" : 0,
                        "NORMAL" : 1,
                        "TEXCOORD_0" : 2
                    },
                    "indices" : 3,
                    "material" : 0
                }
            ]
        },
        {
            "name" : "Cube.010",
            "primitives" : [
                {
                    "attributes" : {
                        "POSITION" : 4,
                        "NORMAL" : 5,
                        "TEXCOORD_0" : 6
                    },
                    "indices" : 7,
                    "material" : 1
                }
            ]
        },
        {
            "name" : "Cube.005",
            "primitives" : [
                {
                    "attributes" : {
                        "POSITION" : 8,
                        "NORMAL" : 9,
                        "TEXCOORD_0" : 10
                    },
                    "indices" : 11,
                    "material" : 1
                }
            ]
        },
        {
            "name" : "Cube",
            "primitives" : [
                {
                    "attributes" : {
                        "POSITION" : 12,
                        "NORMAL" : 13,
                        "TEXCOORD_0" : 14
                    },
                    "indices" : 15,
                    "material" : 1
                }
            ]
        },
        {
            "name" : "Cube.008",
            "primitives" : [
                {
                    "attributes" : {
                        "POSITION" : 16,
                        "NORMAL" : 17,
                        "TEXCOORD_0" : 18
                    },
                    "indices" : 19,
                    "material" : 2
                },
                {
                    "attributes" : {
                        "POSITION" : 20,
                        "NORMAL" : 21,
                        "TEXCOORD_0" : 22
                    },
                    "indices" : 23,
                    "material" : 3
                }
            ]
        }
    ],
    "accessors" : [
        {
            "bufferView" : 0,
            "componentType" : 5126,
            "count" : 190,
            "max" : [
                1.6637746095657349,
                0.22144809365272522,
                0.2214481085538864
            ],
            "min" : [
                -0.8243926763534546,
                -0.2214481234550476,
                -0.2214481085538864
            ],
            "type" : "VEC3"
        },
        {
            "bufferView" : 1,
            "componentType" : 5126,
            "count" : 190,
            "type" : "VEC3"
        },
        {
            "bufferView" : 2,
            "componentType" : 5126,
            "count" : 190,
            "type" : "VEC2"
        },
        {
            "bufferView" : 3,
            "componentType" : 5123,
            "count" : 276,
            "type" : "SCALAR"
        },
        {
            "bufferView" : 4,
            "componentType" : 5126,
            "count" : 288,
            "max" : [
                0.9306071996688843,
                2.8652889728546143,
                2.277650833129883
            ],
            "min" : [
                -0.9306071400642395,
                0.8381201028823853,
                -1.4792914390563965
            ],
            "type" : "VEC3"
        },
        {
            "bufferView" : 5,
            "componentType" : 5126,
            "count" : 288,
            "type" : "VEC3"
        },
        {
            "bufferView" : 6,
            "componentType" : 5126,
            "count" : 288,
            "type" : "VEC2"
        },
        {
            "bufferView" : 7,
            "componentType" : 5123,
            "count" : 432,
            "type" : "SCALAR"
        },
        {
            "bufferView" : 8,
            "componentType" : 5126,
            "count" : 96,
            "max" : [
                0.2214481085538864,
                0.22144809365272522,
                0.8243926763534546
            ],
            "min" : [
                -0.2214481085538864,
                -0.2214481234550476,
                -0.3124999701976776
            ],
            "type" : "VEC3"
        },
        {
            "bufferView" : 9,
            "componentType" : 5126,
            "count" : 96,
            "type" : "VEC3"
        },
        {
            "bufferView" : 10,
            "componentType" : 5126,
            "count" : 96,
            "type" : "VEC2"
        },
        {
            "bufferView" : 11,
            "componentType" : 5123,
            "count" : 138,
            "type" : "SCALAR"
        },
        {
            "bufferView" : 12,
            "componentType" : 5126,
            "count" : 234,
            "max" : [
                1.008470058441162,
                3.220276117324829,
                2.342409133911133
            ],
            "min" : [
                -1.008470058441162,
                -0.0021178722381591797,
                -1.5965204238891602
            ],
            "type" : "VEC3"
        },
        {
            "bufferView" : 13,
            "componentType" : 5126,
            "count" : 234,
            "type" : "VEC3"
        },
        {
            "bufferView" : 14,
            "componentType" : 5126,
            "count" : 234,
            "type" : "VEC2"
        },
        {
            "bufferView" : 15,
            "componentType" : 5123,
            "count" : 348,
            "type" : "SCALAR"
        },
        {
            "bufferView" : 16,
            "componentType" : 5126,
            "count" : 32,
            "max" : [
                1.074666142463684,
                2.2799930572509766,
                0.4370816648006439
            ],
            "min" : [
                -1.074666142463684,
                1.044682264328003,
                0.03981749713420868
            ],
            "type" : "VEC3"
        },
        {
            "bufferView" : 17,
            "componentType" : 5126,
            "count" : 32,
            "type" : "VEC3"
        },
        {
            "bufferView" : 18,
            "componentType" : 5126,
            "count" : 32,
            "type" : "VEC2"
        },
        {
            "bufferView" : 19,
            "componentType" : 5123,
            "count" : 48,
            "type" : "SCALAR"
        },
        {
            "bufferView" : 20,
            "componentType" : 5126,
            "count" : 16,
            "max" : [
                0.5072511434555054,
                3.137327194213867,
                0.012696058489382267
            ],
            "min" : [
                0.026608332991600037,
                2.9044408798217773,
                0.012696043588221073
            ],
            "type" : "VEC3"
        },
        {
            "bufferView" : 21,
            "componentType" : 5126,
            "count" : 16,
            "type" : "VEC3"
        },
        {
            "bufferView" : 22,
            "componentType" : 5126,
            "count" : 16,
            "type" : "VEC2"
        },
        {
            "bufferView" : 23,
            "componentType" : 5123,
            "count" : 24,
            "type" : "SCALAR"
        }
    ],
    "bufferViews" : [
        {
            "buffer" : 0,
            "byteLength" : 2280,
            "byteOffset" : 0
        },
        {
            "buffer" : 0,
            "byteLength" : 2280,
            "byteOffset" : 2280
        },
        {
            "buffer" : 0,
            "byteLength" : 1520,
            "byteOffset" : 4560
        },
        {
            "buffer" : 0,
            "byteLength" : 552,
            "byteOffset" : 6080
        },
        {
            "buffer" : 0,
            "byteLength" : 3456,
            "byteOffset" : 6632
        },
        {
            "buffer" : 0,
            "byteLength" : 3456,
            "byteOffset" : 10088
        },
        {
            "buffer" : 0,
            "byteLength" : 2304,
            "byteOffset" : 13544
        },
        {
            "buffer" : 0,
            "byteLength" : 864,
            "byteOffset" : 15848
        },
        {
            "buffer" : 0,
            "byteLength" : 1152,
            "byteOffset" : 16712
        },
        {
            "buffer" : 0,
            "byteLength" : 1152,
            "byteOffset" : 17864
        },
        {
            "buffer" : 0,
            "byteLength" : 768,
            "byteOffset" : 19016
        },
        {
            "buffer" : 0,
            "byteLength" : 276,
            "byteOffset" : 19784
        },
        {
            "buffer" : 0,
            "byteLength" : 2808,
            "byteOffset" : 20060
        },
        {
            "buffer" : 0,
            "byteLength" : 2808,
            "byteOffset" : 22868
        },
        {
            "buffer" : 0,
            "byteLength" : 1872,
            "byteOffset" : 25676
        },
        {
            "buffer" : 0,
            "byteLength" : 696,
            "byteOffset" : 27548
        },
        {
            "buffer" : 0,
            "byteLength" : 384,
            "byteOffset" : 28244
        },
        {
            "buffer" : 0,
            "byteLength" : 384,
            "byteOffset" : 28628
        },
        {
            "buffer" : 0,
            "byteLength" : 256,
            "byteOffset" : 29012
        },
        {
            "buffer" : 0,
            "byteLength" : 96,
            "byteOffset" : 29268
        },
        {
            "buffer" : 0,
            "byteLength" : 192,
            "byteOffset" : 29364
        },
        {
            "buffer" : 0,
            "byteLength" : 192,
            "byteOffset" : 29556
        },
        {
            "buffer" : 0,
            "byteLength" : 128,
            "byteOffset" : 29748
        },
        {
            "buffer" : 0,
            "byteLength" : 48,
            "byteOffset" : 29876
        }
    ],
    "buffers" : [
        {
            "byteLength" : 29924,
            "uri" : "data:application/octet-stream;base64,"
        }
    ]
}
