{
    "asset" : {
        "generator" : "Khronos glTF Blender I/O v1.7.33",
        "version" : "2.0"
    },
    "scene" : 0,
    "scenes" : [
        {
            "name" : "Scene",
            "nodes" : [
                0,
                1,
                2,
                3
            ]
        }
    ],
    "nodes" : [
        {
            "mesh" : 0,
            "name" : "cannon.001",
            "translation" : [
                -0.41969096660614014,
                1.1645013093948364,
                -0.21883434057235718
            ]
        },
        {
            "mesh" : 1,
            "name" : "ropes"
        },
        {
            "mesh" : 2,
            "name" : "boat"
        },
        {
            "mesh" : 3,
            "name" : "cloth"
        }
    ],
    "materials" : [
        {
            "doubleSided" : true,
            "name" : "ship material",
            "pbrMetallicRoughness" : {
                "baseColorTexture" : {
                    "index" : 0
                },
                "metallicFactor" : 0,
                "roughnessFactor" : 0.5
            }
        }
    ],
    "meshes" : [
        {
            "name" : "Cube.015",
            "primitives" : [
                {
                    "attributes" : {
                        "POSITION" : 0,
                        "NORMAL" : 1,
                        "TEXCOORD_0" : 2
                    },
                    "indices" : 3,
                    "material" : 0
                }
            ]
        },
        {
            "name" : "Cube.010",
            "primitives" : [
                {
                    "attributes" : {
                        "POSITION" : 4,
                        "NORMAL" : 5,
                        "TEXCOORD_0" : 6
                    },
                    "indices" : 7,
                    "material" : 0
                }
            ]
        },
        {
            "name" : "Cube.001",
            "primitives" : [
                {
                    "attributes" : {
                        "POSITION" : 8,
                        "NORMAL" : 9,
                        "TEXCOORD_0" : 10
                    },
                    "indices" : 11,
                    "material" : 0
                }
            ]
        },
        {
            "name" : "Cube.008",
            "primitives" : [
                {
                    "attributes" : {
                        "POSITION" : 12,
                        "NORMAL" : 13,
                        "TEXCOORD_0" : 14
                    },
                    "indices" : 15,
                    "material" : 0
                }
            ]
        }
    ],
    "textures" : [
        {
            "sampler" : 0,
            "source" : 0
        }
    ],
    "images" : [
        {
            "bufferView" : 4,
            "mimeType" : "image/png",
            "name" : "albedo"
        }
    ],
    "accessors" : [
        {
            "bufferView" : 0,
            "componentType" : 5126,
            "count" : 135,
            "max" : [
                0.3124999701976776,
                0.22144809365272522,
                0.2214481085538864
            ],
            "min" : [
                -0.8243926763534546,
                -0.2214481234550476,
                -0.2214481085538864
            ],
            "type" : "VEC3"
        },
        {
            "bufferView" : 1,
            "componentType" : 5126,
            "count" : 135,
            "type" : "VEC3"
        },
        {
            "bufferView" : 2,
            "componentType" : 5126,
            "count" : 135,
            "type" : "VEC2"
        },
        {
            "bufferView" : 3,
            "componentType" : 5123,
            "count" : 138,
            "type" : "SCALAR"
        },
        {
            "bufferView" : 5,
            "componentType" : 5126,
            "count" : 723,
            "max" : [
                0.94111168384552,
                2.876220703125,
                2.288891077041626
            ],
            "min" : [
                -0.9411116242408752,
                0.8364651203155518,
                -1.4949982166290283
            ],
            "type" : "VEC3"
        },
        {
            "bufferView" : 6,
            "componentType" : 5126,
            "count" : 723,
            "type" : "VEC3"
        },
        {
            "bufferView" : 7,
            "componentType" : 5126,
            "count" : 723,
            "type" : "VEC2"
        },
        {
            "bufferView" : 8,
            "componentType" : 5123,
            "count" : 972,
            "type" : "SCALAR"
        },
        {
            "bufferView" : 9,
            "componentType" : 5126,
            "count" : 282,
            "max" : [
                1.008470058441162,
                3.220276117324829,
                2.342409133911133
            ],
            "min" : [
                -1.008470058441162,
                -0.0021178722381591797,
                -1.5965204238891602
            ],
            "type" : "VEC3"
        },
        {
            "bufferView" : 10,
            "componentType" : 5126,
            "count" : 282,
            "type" : "VEC3"
        },
        {
            "bufferView" : 11,
            "componentType" : 5126,
            "count" : 282,
            "type" : "VEC2"
        },
        {
            "bufferView" : 12,
            "componentType" : 5123,
            "count" : 348,
            "type" : "SCALAR"
        },
        {
            "bufferView" : 13,
            "componentType" : 5126,
            "count" : 48,
            "max" : [
                1.074666142463684,
                3.137327194213867,
                0.4370816648006439
            ],
            "min" : [
                -1.074666142463684,
                1.044682264328003,
                0.012696043588221073
            ],
            "type" : "VEC3"
        },
        {
            "bufferView" : 14,
            "componentType" : 5126,
            "count" : 48,
            "type" : "VEC3"
        },
        {
            "bufferView" : 15,
            "componentType" : 5126,
            "count" : 48,
            "type" : "VEC2"
        },
        {
            "bufferView" : 16,
            "componentType" : 5123,
            "count" : 72,
            "type" : "SCALAR"
        }
    ],
    "bufferViews" : [
        {
            "buffer" : 0,
            "byteLength" : 1620,
            "byteOffset" : 0
        },
        {
            "buffer" : 0,
            "byteLength" : 1620,
            "byteOffset" : 1620
        },
        {
            "buffer" : 0,
            "byteLength" : 1080,
            "byteOffset" : 3240
        },
        {
            "buffer" : 0,
            "byteLength" : 276,
            "byteOffset" : 4320
        },
        {
            "buffer" : 0,
            "byteLength" : 60808,
            "byteOffset" : 4596
        },
        {
            "buffer" : 0,
            "byteLength" : 8676,
            "byteOffset" : 65404
        },
        {
            "buffer" : 0,
            "byteLength" : 8676,
            "byteOffset" : 74080
        },
        {
            "buffer" : 0,
            "byteLength" : 5784,
            "byteOffset" : 82756
        },
        {
            "buffer" : 0,
            "byteLength" : 1944,
            "byteOffset" : 88540
        },
        {
            "buffer" : 0,
            "byteLength" : 3384,
            "byteOffset" : 90484
        },
        {
            "buffer" : 0,
            "byteLength" : 3384,
            "byteOffset" : 93868
        },
        {
            "buffer" : 0,
            "byteLength" : 2256,
            "byteOffset" : 97252
        },
        {
            "buffer" : 0,
            "byteLength" : 696,
            "byteOffset" : 99508
        },
        {
            "buffer" : 0,
            "byteLength" : 576,
            "byteOffset" : 100204
        },
        {
            "buffer" : 0,
            "byteLength" : 576,
            "byteOffset" : 100780
        },
        {
            "buffer" : 0,
            "byteLength" : 384,
            "byteOffset" : 101356
        },
        {
            "buffer" : 0,
            "byteLength" : 144,
            "byteOffset" : 101740
        }
    ],
    "samplers" : [
        {
            "magFilter" : 9729,
            "minFilter" : 9987
        }
    ],
    "buffers" : [
        {
            "byteLength" : 101884,
            "uri" : "data:application/octet-stream;base64,"
        }
    ]
}
